# xmcd CD database file
#
# Track frame offsets:
#	150
#	6062
#	48398
#	53588
#	73361
#	77112
#	113820
#	121520
#	146386
#	180156
#	196035
#	236293
#	254442
#
# Disc length: 3650 seconds
#
# Revision: 1
# Processed by: cddbd v1.5.2PL0 Copyright (c) Steve Scherf et al.
# Submitted via: CDex 1.51
#
DISCID=9d0e400d
DTITLE=Tail Dragger - My Head Is Bald
DYEAR=2005
DGENRE=Blues
TTITLE0=Intro
TTITLE1=Sitting Here Singing My Blues
TTITLE2=Talk
TTITLE3=Tend To Your Business
TTITLE4=Talk
TTITLE5=Prison Blues
TTITLE6=Talk
TTITLE7=So Ezee
TTITLE8=My Woman Is Gone
TTITLE9=Talk
TTITLE10=My Head Is Bald
TTITLE11=You Gotta Go
TTITLE12=Jump For Joy
EXTD=YEAR: 2005
EXTT0=
EXTT1=
EXTT2=
EXTT3=
EXTT4=
EXTT5=
EXTT6=
EXTT7=
EXTT8=
EXTT9=
EXTT10=
EXTT11=
EXTT12=
PLAYORDER=
